<?xml version="1.0" encoding="UTF-8" standalone="no"?>
<svg
   xmlns:dc="http://purl.org/dc/elements/1.1/"
   xmlns:cc="http://creativecommons.org/ns#"
   xmlns:rdf="http://www.w3.org/1999/02/22-rdf-syntax-ns#"
   xmlns:svg="http://www.w3.org/2000/svg"
   xmlns="http://www.w3.org/2000/svg"
   xmlns:sodipodi="http://sodipodi.sourceforge.net/DTD/sodipodi-0.dtd"
   xmlns:inkscape="http://www.inkscape.org/namespaces/inkscape"
   width="76"
   height="92"
   viewBox="0 0 20.108365 24.341648"
   version="1.1"
   id="svg856"
   inkscape:version="1.0.1 (3bc2e813f5, 2020-09-07)"
   sodipodi:docname="icon2.svg"
   inkscape:export-filename="C:\Users\Fatima\OneDrive\Desktop\new-logo.png"
   inkscape:export-xdpi="96"
   inkscape:export-ydpi="96">
  <defs
     id="defs850" />
  <sodipodi:namedview
     id="base"
     pagecolor="#ffffff"
     bordercolor="#666666"
     borderopacity="1.0"
     inkscape:pageopacity="0.0"
     inkscape:pageshadow="2"
     inkscape:zoom="3.5020063"
     inkscape:cx="27.643984"
     inkscape:cy="54.216773"
     inkscape:document-units="mm"
     inkscape:current-layer="layer1-6"
     inkscape:document-rotation="0"
     showgrid="false"
     units="px"
     inkscape:window-width="1920"
     inkscape:window-height="1027"
     inkscape:window-x="-8"
     inkscape:window-y="-8"
     inkscape:window-maximized="1" />
  <metadata
     id="metadata853">
    <rdf:RDF>
      <cc:Work
         rdf:about="">
        <dc:format>image/svg+xml</dc:format>
        <dc:type
           rdf:resource="http://purl.org/dc/dcmitype/StillImage" />
        <dc:title></dc:title>
      </cc:Work>
    </rdf:RDF>
  </metadata>
  <g
     inkscape:label="Layer 1"
     inkscape:groupmode="layer"
     id="layer1">
    <g
       inkscape:label="Layer 1"
       id="layer1-6"
       transform="matrix(0.01867268,0,0,0.02119939,1.7070537,-0.32441058)">
      <g
         id="g1998"
         transform="matrix(1.083912,0,0,1.083912,-40.841357,-48.528731)">
        <text
           xml:space="preserve"
           style="font-size:741.814px;line-height:1.25;font-family:sans-serif;letter-spacing:0px;stroke-width:39.8033;stroke-miterlimit:4;stroke-dasharray:none"
           x="188.5544"
           y="904.60236"
           id="text835"
           transform="scale(1.0382704,0.96314024)"><tspan
             sodipodi:role="line"
             id="tspan833"
             x="188.5544"
             y="904.60236"
             style="stroke-width:39.8033;stroke-miterlimit:4;stroke-dasharray:none">F</tspan></text>
        <rect
           style="fill:none;fill-rule:evenodd;stroke:#4c1515;stroke-width:14.3494;stroke-miterlimit:4;stroke-dasharray:none;stroke-opacity:1"
           id="rect849"
           width="679.27045"
           height="850.3092"
           x="33.627499"
           y="247.19664" />
        <rect
           style="fill:none;fill-rule:evenodd;stroke:#4c1515;stroke-width:14.3494;stroke-miterlimit:4;stroke-dasharray:none;stroke-opacity:1"
           id="rect849-4"
           width="679.27045"
           height="850.3092"
           x="245.93649"
           y="75.844154" />
        <text
           xml:space="preserve"
           style="font-size:994.197px;line-height:1.25;font-family:sans-serif;letter-spacing:0px;stroke-width:53.2596"
           x="41.94838"
           y="1053.8544"
           id="text843-3"
           transform="scale(1.0588381,0.94443144)"><tspan
             sodipodi:role="line"
             x="41.94838"
             y="1053.8544"
             style="stroke-width:53.2596"
             id="tspan845-5">L</tspan></text>
      </g>
      <path
         style="opacity:0.778846;fill:#ec5b76;fill-opacity:0.498039;stroke-width:11.3873;stroke-miterlimit:4;stroke-dasharray:none"
         d="M 740.74668,577.88789 V 208.978 H 488.57199 236.39729 V 125.92498 42.871975 H 593.82751 951.25778 V 494.83489 946.79782 H 846.00225 740.74668 Z"
         id="path1518" />
      <path
         style="opacity:0.778846;fill:#ec5b76;fill-opacity:0.498039;stroke-width:11.3873;stroke-miterlimit:4;stroke-dasharray:none"
         d="M 439.23345,943.90155 236.39729,942.85778 V 585.57517 228.29265 h 243.4034 243.4034 v 359.25258 359.25259 l -40.56724,-0.92634 c -22.31196,-0.50934 -131.84349,-1.39588 -243.4034,-1.96993 z M 337.26717,763.30857 V 630.03746 H 457.87246 578.47775 V 595.27109 560.50471 H 457.87246 337.26717 V 479.38316 398.26161 H 471.0294 604.79162 v -34.76637 -34.7664 H 427.17293 249.55425 v 283.92543 283.92544 h 43.85646 43.85646 z"
         id="path1520" />
      <path
         style="opacity:0.778846;fill:#ec5b76;fill-opacity:0.498039;stroke-width:11.3873;stroke-miterlimit:4;stroke-dasharray:none"
         d="M 3.958026,680.25559 V 228.29265 H 109.21355 214.46906 v 28.97198 28.97199 h -48.2421 -48.24212 v 372.77279 372.77289 h 260.94598 260.94599 v -32.8349 -32.83502 h 41.66363 41.66365 v 83.05302 83.0531 H 363.58107 3.958026 Z"
         id="path1522" />
      <path
         style="opacity:0.778846;fill:#ec5b76;fill-opacity:0.498039;stroke-width:11.3873;stroke-miterlimit:4;stroke-dasharray:none"
         d="M 740.74668,577.88789 V 208.978 H 488.57199 236.39729 V 125.92498 42.871975 H 593.82751 951.25778 V 494.83489 946.79782 H 846.00225 740.74668 Z"
         id="path1524" />
      <path
         style="opacity:0.778846;fill:#ec5b76;fill-opacity:0.498039;stroke-width:11.3873;stroke-miterlimit:4;stroke-dasharray:none"
         d="m 478.70429,943.90128 -242.307,-1.03177 V 585.58104 228.29265 h 243.4034 243.4034 v 359.25258 c 0,197.58889 -0.49334,358.83306 -1.09647,358.3202 -0.60297,-0.51286 -110.13455,-1.39669 -243.40338,-1.96415 z M 337.26717,763.30857 V 630.03746 H 457.87246 578.47775 V 595.27109 560.50471 H 457.87246 337.26717 V 479.38316 398.26161 H 471.0294 604.79162 v -34.76637 -34.7664 H 427.17293 249.55425 v 283.92543 283.92544 h 43.85646 43.85646 z"
         id="path1526" />
      <path
         style="opacity:0.778846;fill:#ec5b76;fill-opacity:0.498039;stroke-width:11.3873;stroke-miterlimit:4;stroke-dasharray:none"
         d="M 3.958026,680.25559 V 228.29265 H 109.21355 214.46906 v 28.97198 28.97199 h -48.2421 -48.24212 v 372.77279 372.77289 h 260.94598 260.94599 v -32.8349 -32.83502 h 41.66363 41.66365 v 83.05302 83.0531 H 363.58107 3.958026 Z"
         id="path1528" />
      <path
         style="opacity:0.778846;fill:#ec5b76;fill-opacity:0.498039;stroke-width:11.3873;stroke-miterlimit:4;stroke-dasharray:none"
         d="M 236.39729,585.61376 V 228.29265 h 243.50825 243.50824 l -1.01598,282.95969 c -0.55889,155.62782 -1.71237,316.42231 -2.5635,357.3211 l -1.54749,74.36151 H 477.34206 236.39729 Z M 337.26717,763.30857 V 630.03746 H 457.87246 578.47775 V 595.27109 560.50471 H 457.87246 337.26717 V 479.38316 398.26161 H 471.0294 604.79162 v -34.76637 -34.7664 H 427.17293 249.55425 v 283.92543 283.92544 h 43.85646 43.85646 z"
         id="path1530" />
      <path
         style="opacity:0.778846;fill:#ec5b76;fill-opacity:0.498039;stroke-width:11.3873;stroke-miterlimit:4;stroke-dasharray:none"
         d="M 236.39729,585.61376 V 228.29265 h 244.04375 244.04374 l -2.7705,145.82563 c -1.52372,80.20412 -2.79869,240.99863 -2.83317,357.32109 l -0.063,211.49558 H 477.60787 236.39729 Z M 337.26717,763.30857 V 630.03746 H 457.87246 578.47775 V 595.27109 560.50471 H 457.87246 337.26717 V 479.38316 398.26161 H 471.0294 604.79162 v -34.76637 -34.7664 H 427.17293 249.55425 v 283.92543 283.92544 h 43.85646 43.85646 z"
         id="path1532" />
      <path
         style="opacity:0.778846;fill:#ec5b76;fill-opacity:0.498039;stroke-width:11.3873;stroke-miterlimit:4;stroke-dasharray:none"
         d="M 740.74668,577.88789 V 208.978 H 488.57199 236.39729 V 125.92498 42.871975 H 593.82751 951.25778 V 494.83489 946.79782 H 846.00225 740.74668 Z"
         id="path1534" />
      <path
         style="opacity:0.778846;fill:#ec5b76;fill-opacity:0.498039;stroke-width:11.3873;stroke-miterlimit:4;stroke-dasharray:none"
         d="M 740.74668,577.88789 V 208.978 H 488.57199 236.39729 V 125.92498 42.871975 H 593.82751 951.25778 V 494.83489 946.79782 H 846.00225 740.74668 Z"
         id="path1536" />
      <path
         style="opacity:0.778846;fill:#ec5b76;fill-opacity:0.498039;stroke-width:11.3873;stroke-miterlimit:4;stroke-dasharray:none"
         d="M 3.958026,680.25559 V 228.29265 H 109.21355 214.46906 v 28.97198 28.97199 h -48.2421 -48.24212 v 372.77279 372.77289 h 260.94598 260.94599 v -32.8349 -32.83502 h 41.66363 41.66365 v 83.05302 83.0531 H 363.58107 3.958026 Z"
         id="path1538" />
      <path
         style="opacity:0.778846;fill:#ec5b76;fill-opacity:0.498039;stroke-width:11.3873;stroke-miterlimit:4;stroke-dasharray:none"
         d="M 3.958026,680.25559 V 228.29265 H 109.21355 214.46906 v 28.97198 28.97199 h -48.2421 -48.24212 v 372.77279 372.77289 h 260.94598 260.94599 v -32.8349 -32.83502 h 41.66363 41.66365 v 83.05302 83.0531 H 363.58107 3.958026 Z"
         id="path1540" />
      <path
         style="opacity:0.778846;fill:#f2f2f2;fill-opacity:0.498039;stroke-width:0.790008;stroke-miterlimit:4;stroke-dasharray:none"
         d="M 25.288191,74.13634 23.360725,74.03645 V 45.637208 17.237971 H 40.39732 57.433916 l -0.187975,15.348344 c -0.10339,8.44159 -0.188487,21.291367 -0.189112,28.55506 L 57.055729,74.34809 42.135711,74.29216 C 33.929666,74.261403 26.348298,74.191283 25.288191,74.13634 Z M 30.49949,60.07056 V 49.505188 h 8.423742 8.423743 V 46.506907 43.508626 H 38.923232 30.49949 v -6.278212 -6.278211 l 9.351782,-0.07529 9.351782,-0.07529 0.08138,-2.926893 0.08138,-2.926894 H 36.648817 23.931826 v 22.844048 22.844047 h 3.283832 3.283832 z"
         id="path1542"
         transform="matrix(14.169565,0,0,12.480725,-91.419855,15.301482)" />
    </g>
  </g>
</svg>
